<svg xmlns="http://www.w3.org/2000/svg" width="99.91" height="72.25"><defs><filter id="a" x="908.75" y="3528.66" width="99.91" height="72.25" filterUnits="userSpaceOnUse"><feFlood result="flood" flood-color="#adc48e"/><feComposite result="composite" operator="in" in2="SourceGraphic"/><feBlend result="blend" in2="SourceGraphic"/></filter></defs><path d="M933.17 3528.71c4.993-.08 10.175.05 14.268 1.07 2.034.51 3.822.54 5.668 1.17a27.062 27.062 0 014.006 1.76 6.73 6.73 0 001.759 1.17 4.243 4.243 0 011.368-.97 24.619 24.619 0 016.255-2.54c.857-.26 1.548-.16 2.443-.39 1.8-.47 4.118-.53 6.059-.98h1.563c1.227-.26 2.879.11 4.3-.19a10.651 10.651 0 013.518 0c1.415.31 3.075-.08 4.3.19h1.563c1.007.23 2.207.13 3.323.39a69.279 69.279 0 017.527 1.76c2.68.99 5.38 2.01 6.84 4.2.85 1.27.68 3.52.68 5.66v41.39c0 5.69.14 11.65-.1 17.17a4.016 4.016 0 01-1.66 1.27 3.5 3.5 0 01-1.76-.39c-1.17-.33-2.48-.32-3.61-.58-1.27-.29-2.637-.14-3.813-.39H996.2c-.852-.19-2 .02-3.029-.2a34.016 34.016 0 00-6.45-.29c-2.19 0-4.814-.44-6.84 0-.855.18-2-.06-2.737.1h-2.54c-1.134.24-2.721.15-3.812.39-1.139.06-2.28.13-3.42.19-1.986.45-4.186.32-6.254.78a7.018 7.018 0 01-2.932.39c-2.5-.6-5.533-.59-8.111-1.17-1.383-.31-2.91-.11-4.2-.39-1.4-.06-2.8-.13-4.2-.19h-1.563a17.309 17.309 0 00-5.082-.1c-.7.12-1.907-.16-2.638 0q-3.372.045-6.743.1c-1 .21-2.263-.06-3.42.19-2.644.57-5.727.38-8.209.98-1.765.43-3.944 1.01-4.886-.39-.616-.92-.293-3.36-.293-4.79v-58.27a5.218 5.218 0 00.586-1.27 7.028 7.028 0 011.466-1.66c2.88-2.16 6.453-3.05 10.554-4.1 2.683-.68 5.7-.36 8.5-.97.925-.2 2.508.35 3.223-.1zm-1.661 4.2a7.789 7.789 0 01-1.661.1c-1.185.26-2.454 0-3.714.29-4.83 1.11-10.09 1.21-13.094 4.1v54.37a33.291 33.291 0 000 4.29.529.529 0 00.293.1c.7-.46 1.889-.18 2.834-.39 1.544-.34 3.5-.25 5.081-.59h1.857c1.092-.23 2.537.08 3.811-.19 1.987-.43 4.573-.2 6.841-.2a181.575 181.575 0 0122.769 1.56c.416-1.26.1-4.03.1-5.56v-53.2a.631.631 0 01-.1-.39c-6.054-3.86-15.077-4.22-25.017-4.29zm29.317 63.44a37.956 37.956 0 005.668-.78c1.351-.3 2.851-.11 4.1-.39h1.661c1.472-.32 3.462-.06 4.984-.39h7.72a154.857 154.857 0 0119.447 1.37v-58.86c-.36-.23-.61-.67-.98-.88a21.034 21.034 0 00-3.22-1.17c-4.679-1.73-10.682-2.34-17.006-2.34-4.448 0-8.88.03-12.508.97-.665.18-1.1.01-1.759.2-2.981.84-6.165 1.45-8.111 3.32v58.95zm-37.916-45.87h17.2c3.2 0 6.075-.76 6.058 2.63-.477.53-.609 1.21-1.368 1.47-1.212.41-3.9.09-5.374.09H927.5c-3.282 0-6.186.77-6.157-2.73a6.537 6.537 0 01.88-1.17 5.347 5.347 0 00.687-.29zm50.033 0h17.2c1.935 0 5.146-.47 5.668.97 1.131 1.15-.162 3.13-1.563 3.13-.6.37-4.083.09-5.082.09H976.07c-2.019 0-4.3.26-4.5-1.56-.926-1.16.87-2.2 1.373-2.63zm-50.033 12.49h17.2c3.206 0 6.075-.76 6.058 2.64-.48.53-.609 1.19-1.368 1.46-1.181.42-3.921.1-5.374.1H927.5c-3.277 0-6.186.75-6.157-2.74a7.685 7.685 0 01.782-1.07 6.333 6.333 0 00.785-.39zm50.131 0h17.2c2.975 0 5.944-.59 5.961 2.44-.48.63-.576 1.35-1.368 1.66-1.029.41-3.767.1-5.081.1h-11.924c-2.346 0-6.023.57-6.254-1.56a1.773 1.773 0 010-1.47c.231-.18.277-.5.489-.68.272-.23.697-.27.977-.49zm-50.131 12.5h21.69c.825.25 1.041.91 1.563 1.46.013 1.42-.362 2.28-1.368 2.63-1.241.44-4.144.1-5.668.1H927.8c-1.4 0-3.943.3-5.082-.1a3.711 3.711 0 01-1.368-1.36c-.05-2.11.528-1.82 1.56-2.73zm50.131 0h17.2c2.98 0 5.944-.61 5.961 2.44-.472.61-.568 1.37-1.368 1.65-1.156.42-3.851.1-5.277.1h-11.728c-2.346 0-6.023.58-6.254-1.56a1.751 1.751 0 010-1.46 5.192 5.192 0 00.391-.59 9.971 9.971 0 011.075-.58z" transform="translate(-908.75 -3528.66)" fill="#727272" fill-rule="evenodd" filter="url(#a)"/></svg>