<svg xmlns="http://www.w3.org/2000/svg" width="87.688" height="87.5"><defs><filter id="a" x="532.156" y="3524.25" width="87.688" height="87.5" filterUnits="userSpaceOnUse"><feFlood result="flood" flood-color="#adc48e"/><feComposite result="composite" operator="in" in2="SourceGraphic"/><feBlend result="blend" in2="SourceGraphic"/></filter></defs><path d="M589.574 3524.25h.977a.865.865 0 00.39.19 5.849 5.849 0 01.684.88 19.421 19.421 0 01-3.906 12.8 9.377 9.377 0 01-1.661 1.95 32.522 32.522 0 01-2.734 1.95 3.8 3.8 0 00-1.269.69 8.987 8.987 0 00-.489 1.17c-.723 1.39-1.315 2.81-2.051 4.29a70.373 70.373 0 00-4.3 10.06h.195a12.845 12.845 0 012.93-2.73c.711-.54 1.33-1.32 2.05-1.86 1.842-1.36 3.692-2.56 5.664-3.8 1.3-.82 2.466-2.13 4.493-2.15.486.59 1 .68 1.074 1.75a18.779 18.779 0 00-1.172 2.84c-1.267 2.55-2.269 5.41-3.418 8.1h.293c.38-.77 2.1-1.8 2.832-2.34 2.168-1.61 4.084-3.67 6.25-5.27.722-.54 2.839-1.86 3.125-2.64.164-.44-.3-1.86-.1-2.74a14 14 0 011.569-4.29 11.221 11.221 0 016.347-4.59c3.826-1.18 8.427 1.4 9.864 3.32a13.785 13.785 0 012.148 3.71c2.2 6.44-3.139 11.61-7.617 12.89-1.761.5-3.577-.14-5.176-.2-.681.87-2.485 1.6-2.929 2.54a19.679 19.679 0 014.882.98c3.827 1.05 9.019 1.86 10.84 4.78.588.95.391 2.89.391 4.4 0 5.01.443 7.12-3.125 8.79a27.437 27.437 0 01-2.539 11.23c-3.923 9.28-11.031 18.06-21.387 20.8H559.3a25.072 25.072 0 01-3.907-1.37c-8.413-4.14-14.646-11.49-18.066-20.6a57.77 57.77 0 01-1.758-7.03l-.2-3.03-.781-.39a7.494 7.494 0 01-1.954-1.96c-.792-1.28-.39-5.47-.39-7.52v-2.53a5.476 5.476 0 012.734-2.84c3.458-2.17 8.061-2.79 12.7-3.9 1.665-.4 3.359-.3 4.98-.69.618-.14 1.568.09 1.855-.39-.916-1.01-1.232-2.72-1.757-4.1-1.171-3.08-1.784-6.5-2.735-9.96-.065-.62-.13-1.24-.2-1.85-.489-2.03-.918-3.75 1.855-3.72.529.45 1.409.34 2.149.59a37.789 37.789 0 015.273 2.15 21.678 21.678 0 0111.914 16.01h.688c2.662-4.74.42-11.74-1.27-15.62a17.04 17.04 0 01-14.062-7.81c-.881-1.33-2.246-3-2.246-5.08a3.833 3.833 0 01.683-.88 4.21 4.21 0 012.344-.29 20.739 20.739 0 015.078.78c4.78 1.34 8.407 3.19 10.059 7.62a22.407 22.407 0 01.586 2.73v1.07c.525 1.32 1.423 2.76 1.953 4.2.249.68.526 3.14.977 3.42a4.088 4.088 0 01.585-1.27c.414-.82.553-1.63.977-2.44.528-1.01 1.341-2.19 1.758-3.22v-2.25c.466-2.03.5-4.07 1.172-5.86a16.646 16.646 0 015.761-7.71 12.389 12.389 0 012.051-1.17 5.514 5.514 0 001.468-.59zm-1.465 4.1c-.562.84-1.733 1.24-2.344 2.05a13.862 13.862 0 00-3.32 8.4h.195c.615-.8 1.728-1.23 2.344-2.05a14.2 14.2 0 003.32-8.4h-.195zm-18.555 11.43c-.153-4.88-6.423-7.08-11.23-7.62v.1h-.1v.19a4.075 4.075 0 01.586.98c.471.66 1.061 1.29 1.563 1.95 1.458 1.93 5.9 4.24 9.181 4.4zm36.915 2.24a7.667 7.667 0 001.367 2.64 16.556 16.556 0 005.176 5.57c.492.32 2.479 1.77 2.929 1.36.912-1.12.8-3.96.293-5.37-.973-2.69-2.254-3.83-5.176-4.59a6.044 6.044 0 00-2.539-.19c-.664.16-1.368.47-2.05.58zm-53.516 1.57a27.251 27.251 0 001.367 6.34c1.6 5.2 3 10.08 6.641 13.19a14.246 14.246 0 001.855 1.75c.427.25.929.17 1.367.39a7.749 7.749 0 001.563.98v-.19a21 21 0 01-1.465-3.03 63.04 63.04 0 00-4.1-6.45c-.87-1.21-2.926-2.82-2.929-4.68.606-.66.7-1.1 2.051-1.08a50.459 50.459 0 016.738 8.99c.434.69 1.65 3.62 2.148 3.9v-2.93a6.8 6.8 0 01-.2-1.66 24.475 24.475 0 00-1.367-4.69 19.9 19.9 0 00-9.277-9.08c-1.211-.63-2.752-1.66-4.392-1.75zm60.645 10.54a6.88 6.88 0 01-2.54-1.46 20.581 20.581 0 01-4.98-4.79c-.465-.65-1.717-3.45-2.344-3.61-.289 1.03-.878 1.94-1.172 3.22a5.813 5.813 0 00.2 2.44c.774 2.9 1.892 4.22 4.589 5.18a6.254 6.254 0 003.223.39c1.143-.27 2.06-.8 3.028-1.08v-.29zm-27.247-.88a25.327 25.327 0 01-3.515 2.44 34.05 34.05 0 00-7.617 7.72 10.185 10.185 0 00-2.344 6.05h.1v.1c7.623-1.45 8.776-4.84 11.426-11.13a41.054 41.054 0 002.149-5.18h-.2zm-11.914 21a27.505 27.505 0 005.469-.1c.685-.15 1.612.19 2.149-.1a8.21 8.21 0 00.781-.78c1.183-.88 2.259-1.87 3.418-2.73 3.4-2.53 6.554-5.29 9.961-7.81a11.845 11.845 0 001.757-1.47 2.528 2.528 0 01.586-.88c.344-.21.759-.17 1.075-.39.869-.6 1.592-1.51 2.441-2.15a4.111 4.111 0 001.563-1.36c-.984-.34-2.385-2.19-2.832-3.13-1.492.87-2.641 2.31-4 3.32-4.109 3.05-7.82 6.51-11.914 9.57-1.663 1.24-3.016 2.99-4.786 4.1-1.791 1.12-3.7 1.43-5.859 2.25a4.826 4.826 0 01.191 1.66zm-19.237-11.52a7.619 7.619 0 01-1.758.19c-1.341.32-2.853.23-4.3.59-3.342.82-6.829 1.26-9.765 2.34-1.181.44-3.522.85-3.907 1.95-.406.75 2.813 2.48 4 2.15 2.354-.64 5.133-.96 7.715-1.56h.977c1.738-.4 3.918-.38 5.664-.78h1.074c1.158-.27 2.685-.32 3.809-.59.672-.16 1.19.12 1.562-.29a14.062 14.062 0 01-3.808-4H555.2zm45.117.68a16.139 16.139 0 01-1.953 1.46c-.61.46-1.148 1.11-1.758 1.57a3.169 3.169 0 00-1.172.97h1.075c.823.51 3.783.3 4.98.59 2.2.53 4.619.54 6.836 1.17 1.189.34 2.642.82 3.809 1.08 1.087.24 4.395-1.52 4.492-2.45l-.684-.78c-1.437-.88-3.1-.98-4.883-1.56a60.968 60.968 0 00-10.743-2.05zm-8.4 6.74a20.434 20.434 0 01-1.856 1.37c-.442.32-.827.84-1.269 1.17a4.131 4.131 0 00-1.465 1.17h2.051c.815-.49 3.962-.12 5.176-.39 1.167-.26 2.527-.1 3.808-.39 2.231-.51 4.716-.63 6.934-1.08v-.09c-.1-.04-.2-.07-.293-.1-.777-.47-2.287-.25-3.321-.49-2.232-.53-4.985-.46-7.324-.98-.869-.19-1.728.05-2.44-.19zm-37.793.58a6.543 6.543 0 01-1.758.2 32.731 32.731 0 01-6.348.78v.2c2.181.32 4.363.65 6.543.97.545-.81 1.978-1.4 2.344-2.15h-.781zm8.691.59a4.568 4.568 0 01-1.172.2 23.092 23.092 0 00-3.32.97 9.621 9.621 0 00-5.176 4.98 12.1 12.1 0 00-.39 2.15 9.066 9.066 0 00-.2 3.42c.2.82.362 1.98.586 2.73a37.884 37.884 0 001.172 3.91 2.045 2.045 0 00.586 1.27c.459-1.46 1.721-2.73 2.539-3.91 2.4-3.43 4.814-6.85 8.2-9.28a13.95 13.95 0 012.93-1.56 8.216 8.216 0 001.855-.68l.879-1.08c.055-1.13-.273-2.77-1.269-2.83-.819.65-2.792 1.13-3.809 1.66a18.237 18.237 0 00-6.25 5.08c-1 1.41-.841 3.69-3.222 3.71-.6-.68-1.094-.65-1.075-2.05a14.722 14.722 0 00.977-2.15c.489-.8 1.093-1.59 1.66-2.34a19.46 19.46 0 013.027-2.83c.58-.42 1.631-.72 1.954-1.37h-.489zm-27.441.59a24.4 24.4 0 00.1 4.29 39.164 39.164 0 006.641 2.74c1.186.41 2.494.46 3.613.78.456.13 3.594.5 3.614.49.355-.43.115-1 .293-1.66.244-.91.662-1.84.879-2.74h-.1v-.1a17.566 17.566 0 01-4.1-.68c-.553-.06-1.107-.13-1.66-.19-2.035-.56-4.221-.85-6.152-1.57a22.988 22.988 0 00-3.127-1.36zm81.054 0a5.182 5.182 0 01-1.269.58 42.383 42.383 0 01-6.836 2.15c-.595.17-.944.03-1.562.2-1.992.52-4.46.66-6.543 1.17-.944.06-1.889.13-2.832.19-1.451.34-3.407.25-4.883.59h-1.856c-.856.19-2.135.09-3.027.29h-1.856c-.793.18-2.015-.1-2.929.1-2.641.58-7.024.19-10.059.19-.9 1.12-2.231 1.28-3.613 1.96a15.519 15.519 0 00-2.051 1.36 3.29 3.29 0 00-1.367 1.18h2.734c.655.41 2.077-.09 2.93.09a17.787 17.787 0 003.223.1h5.761a18.91 18.91 0 003.028-.19c1.582-.35 3.378.11 4.785-.2 1-.22 2.1-.01 2.93-.19h1.66c1.469-.33 3.354-.26 4.785-.59 1.406-.33 2.73-.06 4.1-.39 2.5-.61 5.3-.86 7.618-1.56.5-.15.774-.05 1.269-.2a29.436 29.436 0 004.492-1.76c.589-.29 1.232-.34 1.465-.97.314-.5.109-3.27.1-4.1h-.2zm-77.734 9.18c-.345 1.07.3 3.15.586 4.1.417 1.37.5 2.54.977 3.8a42.279 42.279 0 002.734 5.47c3.594 6.47 9 11.83 16.7 14.16h32.617c8.489-2.58 14.06-8.72 17.774-16.11a29.412 29.412 0 003.32-11.33h-.1v-.09c-2.662 1.11-5.972 1.4-8.985 2.14-1.2.3-2.2.11-3.418.39-2.492.59-5.512.4-8.105.98h-1.563a41.43 41.43 0 01-4.785.39h-2.536a35.774 35.774 0 01-6.445.2q-4.638-.06-9.278-.1c-.762-.17-1.948.1-2.832-.1a12.632 12.632 0 00-2.539-.19c-.55.96-1.423 1.74-2.051 2.63-.941 1.34-1.664 2.7-2.539 4.1-.331.54-.866 1.11-1.171 1.66-.72 1.3-.863 2.96-2.93 2.93-1.947-1.97-2.949-5.72-3.906-8.69-.283-.87-.293-3.3-.684-3.9v-.1a26.642 26.642 0 01-6.348-1.17 32.334 32.334 0 01-4.487-1.17zm63.379 5.66h.977a.865.865 0 00.39.19 5.849 5.849 0 01.684.88 14.818 14.818 0 01-1.563 5.57c-2.054 4.88-4.112 8.6-8.691 10.94-1.216.62-3.96 1.67-6.152 1.17a25.59 25.59 0 01-5.86-1.76 16.042 16.042 0 00-1.855-1.17h-2.149c-2.79-.62-8.145-.59-8.105-3.81.606-.65.7-1.1 2.051-1.07.98 1.14 5.992 2.09 8.3 1.66.535-1.44 2.969-2.93 4.2-3.81a75 75 0 0112.7-6.84c1.33-.6 2.73-1.01 4-1.56a3.36 3.36 0 001.074-.39zm-2.051 4.1c-.846.72-2.291.85-3.32 1.37-2.821 1.41-5.734 2.7-8.3 4.29-1.032.65-2.543 1.17-3.222 2.15h.488a5.269 5.269 0 011.562-.39 9.254 9.254 0 013.614-.78 9 9 0 00.781.88 4.194 4.194 0 01-.2 1.56 20.454 20.454 0 01-5.567 1.86v.19a10.671 10.671 0 012.051.39 7.072 7.072 0 003.613-.39c3.561-1.24 5.226-3.38 6.836-6.54.506-.99 1.007-2.16 1.465-3.22a3.218 3.218 0 00.293-1.27v-.1h-.1z" transform="translate(-532.156 -3524.25)" fill="#727272" fill-rule="evenodd" filter="url(#a)"/></svg>