<svg xmlns="http://www.w3.org/2000/svg" width="14.88" height="14.875"><defs><filter id="a" x="1344.34" y="36.219" width="14.88" height="14.875" filterUnits="userSpaceOnUse"><feFlood result="flood" flood-color="#8eb059"/><feComposite result="composite" operator="in" in2="SourceGraphic"/><feBlend result="blend" in2="SourceGraphic"/></filter></defs><path d="M1346.83 36.22a2.239 2.239 0 011.86 1.022l1.59 1.588a1.8 1.8 0 01.6.912 1.041 1.041 0 01.03.475 2.041 2.041 0 01-.71 1.04c-.17.183-.35.365-.53.548a2.143 2.143 0 00-.51.548 1.77 1.77 0 01.18.31c.14.2.3.389.44.584.16.215.39.391.55.6a8.293 8.293 0 001.53 1.5c.08.058.14.16.22.219.22.164.43.32.66.474a.924.924 0 00.4.219 4.965 4.965 0 01.64-.638 3.166 3.166 0 011.44-1.114 1.155 1.155 0 01.7.108 5.86 5.86 0 011.46 1.3c.38.383.76.767 1.15 1.151a2.339 2.339 0 01.53.584 3.97 3.97 0 01.14.492 1.58 1.58 0 01-.03.657 3.777 3.777 0 01-1.01 1.15 3.363 3.363 0 01-.88.767 5.02 5.02 0 01-.98.292 4.414 4.414 0 01-1.83-.036l-.31-.037a8.089 8.089 0 01-1-.292 15.269 15.269 0 01-1.39-.657c-.25-.138-.5-.335-.75-.474a14.14 14.14 0 01-5.25-5.349c-.13-.23-.3-.466-.44-.693a7.319 7.319 0 01-.44-.967 5.686 5.686 0 01-.14-4.454 3.21 3.21 0 01.71-.767l.78-.8a1.8 1.8 0 01.31-.183 1.2 1.2 0 00.28-.079zm.11.8c-.07.049-.16.063-.22.11l-.84.857a1.8 1.8 0 00-.44.474c-.71 1.6.02 3.674.69 4.782a29.232 29.232 0 001.65 2.447c.09.122.23.224.32.347a3.168 3.168 0 00.57.6c.07.051.1.15.16.2.27.215.5.49.77.694.32.24.62.5.95.73a19.791 19.791 0 001.95 1.169 5.461 5.461 0 003.78.73 3.81 3.81 0 00.59-.146 2.139 2.139 0 00.58-.493c.29-.286.58-.572.88-.858a.612.612 0 01.07-.127 1.264 1.264 0 00-.66-1.113c-.11-.115-.21-.249-.33-.365-.36-.359-.73-.7-1.09-1.059a2.261 2.261 0 00-.79-.694.765.765 0 00-.67.365c-.37.359-.73.718-1.1 1.077a1.454 1.454 0 01-.45.42 2.408 2.408 0 00-.41-.109 4.646 4.646 0 01-.69-.4 13.289 13.289 0 01-2.9-2.775 3.847 3.847 0 01-1.06-1.807 5.54 5.54 0 00.68-.676c.35-.35.71-.683 1.04-1.058h.03a.666.666 0 00.11-.511.829.829 0 01-.11-.164 5.08 5.08 0 00-.49-.492c-.49-.475-.97-.95-1.46-1.424a1.487 1.487 0 00-1.11-.728z" transform="translate(-1344.34 -36.219)" fill="#727272" fill-rule="evenodd" filter="url(#a)"/></svg>