<svg xmlns="http://www.w3.org/2000/svg" width="84.53" height="71.97"><defs><filter id="a" x="1299.69" y="3524.06" width="84.53" height="71.97" filterUnits="userSpaceOnUse"><feFlood result="flood" flood-color="#adc48e"/><feComposite result="composite" operator="in" in2="SourceGraphic"/><feBlend result="blend" in2="SourceGraphic"/></filter></defs><path d="M1341.51 3524.06a5.158 5.158 0 012.93 1.08c1.51.78 3.03 1.48 4.49 2.24 4.02 2.1 8.09 3.87 12.11 5.96 1.53.79 3.12 1.53 4.69 2.34a11.5 11.5 0 001.56.88h15.82a7.263 7.263 0 01.78.69c.5.62.3 2.24.3 3.32v51.46c0 1.48.2 3.01-.69 3.61-.81.64-3.35.3-4.68.3h-74.03c-1.61 0-4.17.34-4.78-.69-.53-.89-.2-3.22-.2-4.49v-53.12c.36-.38.7-.72 1.08-1.08h15.82a10.737 10.737 0 001.17-.68c1.12-.58 2.24-1.1 3.32-1.66 3.31-1.73 6.69-3.28 9.96-4.98 2.41-1.26 4.86-2.38 7.23-3.62.97-.5 2.36-.82 3.12-1.56zm.29 3.32c-.71.83-2.93 1.5-4 2.05-3.15 1.64-6.42 3.24-9.57 4.89-.74.38-4.12 1.76-4.39 2.24h36.32v-.19c-1.18-.16-3.51-1.69-4.59-2.25-3.24-1.69-6.52-3.1-9.76-4.78-1.05-.55-2.78-1.8-4.01-1.96zm-38.86 12.31v53.12h78.12v-53.12h-78.12zm56.64 9.37c6.03-.07 9.01 2.42 11.03 6.35a10.539 10.539 0 01.88 6.93 13.276 13.276 0 01-1.56 3.71 15.237 15.237 0 00-1.37 1.57v17.87c-.36.37-.7.71-1.07 1.07a2.865 2.865 0 01-1.37-.19c-.32-.36-.65-.72-.98-1.08-.97-.94-1.95-1.89-2.93-2.83-.47-.47-.84-1.26-1.66-1.37-1.72 1.76-3.45 3.52-5.17 5.28a2.865 2.865 0 01-1.37.19.891.891 0 00-.39-.19 4.914 4.914 0 01-.68-.88v-17.87c-2.15-1.52-4.08-6.97-2.74-10.75a12.094 12.094 0 014.2-5.86 13.725 13.725 0 013.22-1.56 9.583 9.583 0 001.96-.39zm-46.19 3.13h29.1a5.42 5.42 0 01.88.68 1.7 1.7 0 01-.49 2.15c-.81.64-5.31.29-6.84.29h-17.97c-2.7 0-5.77.84-5.76-2.05a2.675 2.675 0 00.3-.49c.2-.24.57-.34.78-.58zm46.38 0c-.71.19-1.43.39-2.15.58a8.643 8.643 0 00-4.29 4.59c-1.35 3.54.46 6.54 2.15 8.3l.48.69c.44.26 1.36.55 2.06.88a6.174 6.174 0 003.71.58c2.91-.71 4.82-1.93 6.05-4.29 2.67-5.12-1.17-9.92-5.08-11.14a10.157 10.157 0 00-2.93-.19zm-46.38 6.25h19.72a1.655 1.655 0 01.39 2.83c-.71.57-3.87.29-5.17.29h-11.53c-2.41 0-4.5.48-4.49-2.05.36-.37.7-.71 1.08-1.07zm0 6.25h19.72a1.016 1.016 0 00.39.19 5.472 5.472 0 01.69.88 1.747 1.747 0 01-.69 1.76c-.71.57-3.87.29-5.17.29h-11.53c-2.41 0-4.5.48-4.49-2.05a5.472 5.472 0 01.69-.88 1.016 1.016 0 00.39-.19zm42.67 5.27v11.13h.2a19.04 19.04 0 012.73-2.73 4.291 4.291 0 011.27-1.17h.98c.92.9 1.92 1.72 2.83 2.63a4.161 4.161 0 001.37 1.27v-11.13c-1.64.26-3.5 1.53-5.86.98-1.1-.26-2.57-.87-3.52-.98zm-38.86 9.77c-.73-.02-1.43-.52-1.76-.39a3.857 3.857 0 01-.69.97c-1.19.68-1.9-.3-2.44-.88a10.666 10.666 0 012.35-6.83c.95-1.31 2.43-.44 2.93.68a2.978 2.978 0 011.85-.1 4.409 4.409 0 01.68.88v4.69h.2v-.2c.51-.69.34-1.57 1.07-2.05a1.7 1.7 0 011.18-.29 3.36 3.36 0 011.17 1.17c.49-.32.97-.65 1.46-.97.46-.21.99-.22 1.47-.39a1.41 1.41 0 011.37-1.18.891.891 0 01.78.1 1.3 1.3 0 01.88 1.27c.48 1.04-1.23 2.92-2.06 3.13-.54.13-.88-.26-1.36 0-.68.35-1.23 1.19-1.96 1.56-.53.27-1.33.16-1.85.49-.86.92-.97 2.07-2.83 2.05a4.006 4.006 0 00-.49-.3 5.415 5.415 0 01-1.95-3.41z" transform="translate(-1299.69 -3524.06)" fill="#727272" fill-rule="evenodd" filter="url(#a)"/></svg>