<svg width="13" height="8" viewBox="0 0 13 8" fill="none" xmlns="http://www.w3.org/2000/svg">
<path fill-rule="evenodd" clip-rule="evenodd" d="M12.9897 1.09126C12.9892 1.3853 12.8726 1.6673 12.6651 1.87614L6.47986 7.99439L0.304336 1.87614C0.198254 1.77355 0.113609 1.651 0.0553754 1.51553C-0.00285865 1.38006 -0.0335131 1.23441 -0.0348938 1.08701C-0.0362745 0.939615 -0.0083534 0.793407 0.0473328 0.656876C0.103019 0.520344 0.185309 0.396207 0.289451 0.291653C0.393593 0.187099 0.517515 0.10422 0.654009 0.0478116C0.790504 -0.00859707 0.936849 -0.0374411 1.08459 -0.0369819C1.23233 -0.0365228 1.37855 -0.00680954 1.51469 0.0504464C1.65083 0.107702 1.7742 0.191364 1.87769 0.296563L6.47986 4.86463L11.0918 0.296563C11.2483 0.141972 11.4473 0.0371688 11.6635 -0.0046454C11.8797 -0.0464596 12.1036 -0.0234005 12.3067 0.0616444C12.5098 0.146689 12.683 0.289894 12.8046 0.473156C12.9261 0.656418 12.9906 0.871504 12.9897 1.09126Z" fill="#8EB059"/>
</svg>
